<?xml version="1.0" encoding="utf-8"?>
<!-- Generator: Adobe Illustrator 16.0.0, SVG Export Plug-In . SVG Version: 6.00 Build 0)  -->
<!DOCTYPE svg PUBLIC "-//W3C//DTD SVG 1.1//EN" "http://www.w3.org/Graphics/SVG/1.1/DTD/svg11.dtd">
<svg version="1.1" id="Capa_1" xmlns="http://www.w3.org/2000/svg" xmlns:xlink="http://www.w3.org/1999/xlink" x="0px" y="0px"
	 width="95.332px" height="79.615px" viewBox="0 0 95.332 79.615" enable-background="new 0 0 95.332 79.615" xml:space="preserve">
<g id="left-quote" transform="translate(0 -7.858)">
	<g id="Grupo_3">
		<path id="Trazado_5" fill="#3D3C3B" d="M30.512,43.939c-2.268-0.665-4.617-1.007-6.98-1.019c-3.01-0.009-5.989,0.601-8.752,1.793
			c2.2-8.054,7.485-21.951,18.013-23.516c0.976-0.145,1.774-0.85,2.04-1.8l2.3-8.23c0.372-1.33-0.405-2.709-1.734-3.081
			c-0.109-0.03-0.221-0.054-0.333-0.069c-0.78-0.106-1.566-0.16-2.354-0.16c-12.637,0-25.152,13.19-30.433,32.076
			c-3.1,11.08-4.009,27.738,3.627,38.223c4.273,5.867,10.507,9,18.529,9.312h0.1c12.249-0.007,22.172-9.943,22.165-22.192
			c-0.006-9.936-6.62-18.655-16.186-21.34L30.512,43.939z"/>
		<path id="Trazado_6" fill="#3D3C3B" d="M92.471,54.414c-2.887-5.116-7.68-8.882-13.334-10.475
			c-2.268-0.665-4.616-1.007-6.979-1.019c-3.01-0.009-5.989,0.601-8.754,1.793c2.201-8.054,7.486-21.951,18.015-23.516
			c0.976-0.145,1.774-0.85,2.04-1.8l2.3-8.23c0.372-1.33-0.404-2.709-1.734-3.081c-0.109-0.03-0.221-0.054-0.333-0.069
			c-0.781-0.106-1.566-0.16-2.354-0.16C68.7,7.858,56.186,21.048,50.9,39.934c-3.101,11.08-4.008,27.737,3.629,38.225
			c4.271,5.866,10.507,9,18.527,9.312h0.101c12.249-0.009,22.172-9.945,22.163-22.194c-0.002-3.807-0.984-7.549-2.853-10.865
			L92.471,54.414z"/>
	</g>
</g>
</svg>
